<svg id="visual" viewBox="0 0 900 600" width="900" height="600" xmlns="http://www.w3.org/2000/svg" xmlns:xlink="http://www.w3.org/1999/xlink" version="1.1"><path d="M0 414L21.5 411.7C43 409.3 86 404.7 128.8 398.2C171.7 391.7 214.3 383.3 257.2 379.8C300 376.3 343 377.7 385.8 372.7C428.7 367.7 471.3 356.3 514.2 359.3C557 362.3 600 379.7 642.8 392C685.7 404.3 728.3 411.7 771.2 402.3C814 393 857 367 878.5 354L900 341L900 601L878.5 601C857 601 814 601 771.2 601C728.3 601 685.7 601 642.8 601C600 601 557 601 514.2 601C471.3 601 428.7 601 385.8 601C343 601 300 601 257.2 601C214.3 601 171.7 601 128.8 601C86 601 43 601 21.5 601L0 601Z" fill="#ffc64d"></path><path d="M0 475L21.5 474.8C43 474.7 86 474.3 128.8 470.3C171.7 466.3 214.3 458.7 257.2 458.7C300 458.7 343 466.3 385.8 464.5C428.7 462.7 471.3 451.3 514.2 441.3C557 431.3 600 422.7 642.8 419.7C685.7 416.7 728.3 419.3 771.2 424.7C814 430 857 438 878.5 442L900 446L900 601L878.5 601C857 601 814 601 771.2 601C728.3 601 685.7 601 642.8 601C600 601 557 601 514.2 601C471.3 601 428.7 601 385.8 601C343 601 300 601 257.2 601C214.3 601 171.7 601 128.8 601C86 601 43 601 21.5 601L0 601Z" fill="#ffb34e"></path><path d="M0 479L21.5 469.3C43 459.7 86 440.3 128.8 435C171.7 429.7 214.3 438.3 257.2 448.7C300 459 343 471 385.8 475C428.7 479 471.3 475 514.2 467.3C557 459.7 600 448.3 642.8 453.3C685.7 458.3 728.3 479.7 771.2 486.5C814 493.3 857 485.7 878.5 481.8L900 478L900 601L878.5 601C857 601 814 601 771.2 601C728.3 601 685.7 601 642.8 601C600 601 557 601 514.2 601C471.3 601 428.7 601 385.8 601C343 601 300 601 257.2 601C214.3 601 171.7 601 128.8 601C86 601 43 601 21.5 601L0 601Z" fill="#ffa051"></path><path d="M0 532L21.5 530.7C43 529.3 86 526.7 128.8 521.8C171.7 517 214.3 510 257.2 508.5C300 507 343 511 385.8 508.8C428.7 506.7 471.3 498.3 514.2 489.7C557 481 600 472 642.8 478.7C685.7 485.3 728.3 507.7 771.2 515.3C814 523 857 516 878.5 512.5L900 509L900 601L878.5 601C857 601 814 601 771.2 601C728.3 601 685.7 601 642.8 601C600 601 557 601 514.2 601C471.3 601 428.7 601 385.8 601C343 601 300 601 257.2 601C214.3 601 171.7 601 128.8 601C86 601 43 601 21.5 601L0 601Z" fill="#ff8e57"></path><path d="M0 538L21.5 530.8C43 523.7 86 509.3 128.8 503C171.7 496.7 214.3 498.3 257.2 500.2C300 502 343 504 385.8 508.7C428.7 513.3 471.3 520.7 514.2 529C557 537.3 600 546.7 642.8 540C685.7 533.3 728.3 510.7 771.2 504.2C814 497.7 857 507.3 878.5 512.2L900 517L900 601L878.5 601C857 601 814 601 771.2 601C728.3 601 685.7 601 642.8 601C600 601 557 601 514.2 601C471.3 601 428.7 601 385.8 601C343 601 300 601 257.2 601C214.3 601 171.7 601 128.8 601C86 601 43 601 21.5 601L0 601Z" fill="#ff7c60"></path><path d="M0 528L21.5 530.5C43 533 86 538 128.8 542C171.7 546 214.3 549 257.2 554.2C300 559.3 343 566.7 385.8 567C428.7 567.3 471.3 560.7 514.2 555.7C557 550.7 600 547.3 642.8 543.7C685.7 540 728.3 536 771.2 540C814 544 857 556 878.5 562L900 568L900 601L878.5 601C857 601 814 601 771.2 601C728.3 601 685.7 601 642.8 601C600 601 557 601 514.2 601C471.3 601 428.7 601 385.8 601C343 601 300 601 257.2 601C214.3 601 171.7 601 128.8 601C86 601 43 601 21.5 601L0 601Z" fill="#ff6b6b"></path></svg>