<?xml version="1.0" encoding="UTF-8" standalone="no" ?>
<!DOCTYPE svg PUBLIC "-//W3C//DTD SVG 1.1//EN" "http://www.w3.org/Graphics/SVG/1.1/DTD/svg11.dtd">
<svg xmlns="http://www.w3.org/2000/svg" xmlns:xlink="http://www.w3.org/1999/xlink" version="1.1" width="1280" height="1024" viewBox="0 0 1280 1024" xml:space="preserve">
<desc>Created with Fabric.js 3.6.3</desc>
<defs>
</defs>
<g transform="matrix(3.855955735380396 0 0 3.8559557353803955 674.714092166907 504.2289660934383)" id="logo-logo"  >
<g style=""  paint-order="stroke"   >
		<g transform="matrix(1.248720600059087 0 0 1.248720600059087 6.75023042308311 -0.6067568919310702)"  >
<g style=""  paint-order="stroke"   >
		<g transform="matrix(1 0 0 1 0 0)"  >
<path style="stroke: none; stroke-width: 1; stroke-dasharray: none; stroke-linecap: butt; stroke-dashoffset: 0; stroke-linejoin: miter; stroke-miterlimit: 4; fill: rgb(30,36,61); fill-rule: nonzero; opacity: 1;"  paint-order="stroke"  transform=" translate(-100, -100)" d="M 200 100 A 100 100 0 0 1 100 200 A 100 100 0 0 1 0 100 A 100 100 0 0 1 100 0 A 100 100 0 0 1 200 100 Z" stroke-linecap="round" />
</g>
</g>
</g>
		<g transform="matrix(1.248720600059087 0 0 1.248720600059087 -6.75023042308311 0.6067568919310986)"  >
<g style=""  paint-order="stroke"   >
		<g transform="matrix(1 0 0 1 0 0)"  >
<path style="stroke: none; stroke-width: 1; stroke-dasharray: none; stroke-linecap: butt; stroke-dashoffset: 0; stroke-linejoin: miter; stroke-miterlimit: 4; fill: rgb(255,255,255); fill-rule: nonzero; opacity: 1;"  paint-order="stroke"  transform=" translate(-100, -100)" d="M 200 100 A 100 100 0 0 1 100 200 A 100 100 0 0 1 0 100 A 100 100 0 0 1 100 0 A 100 100 0 0 1 200 100 Z" stroke-linecap="round" />
</g>
</g>
</g>
</g>
</g>
<g transform="matrix(1.9699870022450665 0 0 1.9699870022450665 617.2233196834012 472.2064245703309)" id="text-logo-path"  >
<filter id="SVGID_88559" y="-20%" height="140%" x="-24.64489758000836%" width="149.28979516001672%" >
	<feGaussianBlur in="SourceAlpha" stdDeviation="0"></feGaussianBlur>
	<feOffset dx="10" dy="0" result="oBlur" ></feOffset>
	<feFlood flood-color="rgb(20,26,52)" flood-opacity="1"/>
	<feComposite in2="oBlur" operator="in" />
	<feMerge>
		<feMergeNode></feMergeNode>
		<feMergeNode in="SourceGraphic"></feMergeNode>
	</feMerge>
</filter>
<path style="stroke: none; stroke-width: 0; stroke-dasharray: none; stroke-linecap: butt; stroke-dashoffset: 0; stroke-linejoin: miter; stroke-miterlimit: 10; fill: rgb(76,100,172); fill-rule: nonzero; opacity: 1;filter: url(#SVGID_88559);"  paint-order="stroke"  transform=" translate(-113.87500000000001, 101.57999999999998)" d="M 6.23 -144.2 L 6.23 -144.2 Q 6.23 -165.26 12.47 -182.27 Q 18.7 -199.28 28.55 -210.15 Q 38.41 -221.02 51.46 -228.26 Q 64.52 -235.5 77.32 -238.54 Q 90.12 -241.57 103.1 -241.57 L 103.1 -241.57 Q 108.65 -241.57 112.78 -237.36 Q 116.91 -233.14 116.91 -227.08 L 116.91 -227.08 L 116.91 -105.62 Q 130.72 -108.49 139.65 -115.06 Q 148.58 -121.63 152.87 -131.14 Q 157.17 -140.66 159.28 -151.7 Q 161.38 -162.73 162.39 -175.95 Q 163.4 -189.18 164.67 -201.81 Q 165.93 -214.45 169.8 -228.6 Q 173.68 -242.75 180.42 -254.2 L 180.42 -254.2 Q 182.61 -258.75 187.66 -258.75 L 187.66 -258.75 Q 194.57 -258.75 201.31 -255.63 Q 208.04 -252.52 208.04 -248.47 L 208.04 -248.47 Q 208.04 -245.95 205.35 -244.6 L 205.35 -244.6 Q 199.62 -236.01 196 -223.96 Q 192.38 -211.92 190.69 -199.87 Q 189.01 -187.83 187.41 -174.69 Q 185.81 -161.55 183.11 -149.34 Q 180.42 -137.12 175.87 -126.17 Q 171.32 -115.22 162.65 -106.13 Q 153.97 -97.03 141.5 -91.47 L 141.5 -91.47 Q 155.15 -84.23 164.67 -72.18 Q 174.18 -60.14 179.58 -46.41 Q 184.97 -32.68 189.35 -18.95 Q 193.73 -5.22 200.13 9.1 Q 206.53 23.42 214.95 32.85 L 214.95 32.85 Q 215.63 33.52 218.57 34.79 Q 221.52 36.05 221.52 37.57 L 221.52 37.57 Q 221.52 42.11 212.09 48.85 Q 202.65 55.59 198.11 55.59 L 198.11 55.59 Q 195.75 55.59 193.56 53.4 L 193.56 53.4 Q 184.8 42.45 178.31 28.22 Q 171.83 13.98 168.63 1.6 Q 165.42 -10.78 161.13 -23.84 Q 156.83 -36.89 152.29 -46.83 Q 147.74 -56.77 138.72 -64.77 Q 129.71 -72.77 116.91 -76.31 L 116.91 -76.31 L 116.91 1.68 Q 116.91 9.6 107.31 9.6 L 107.31 9.6 Q 101.24 9.6 95.68 6.57 Q 90.12 3.54 90.12 -0.34 L 90.12 -0.34 L 90.12 -214.61 Q 65.36 -211.58 49.44 -193.47 Q 33.52 -175.36 33.52 -144.2 L 33.52 -144.2 Q 33.52 -131.56 37.23 -120.53 Q 40.94 -109.5 45.06 -104.27 Q 49.19 -99.05 51.72 -99.05 L 51.72 -99.05 Q 52.73 -99.05 54.58 -99.73 Q 56.43 -100.4 57.28 -100.4 L 57.28 -100.4 Q 59.97 -100.4 59.97 -96.19 L 59.97 -96.19 Q 59.97 -85.24 51.21 -77.83 L 51.21 -77.83 Q 46.16 -73.45 41.61 -73.45 L 41.61 -73.45 Q 38.24 -73.45 35.21 -75.64 L 35.21 -75.64 Q 24.43 -82.88 15.33 -101.58 Q 6.23 -120.28 6.23 -144.2 Z" stroke-linecap="round" />
</g>
</svg>